<mxfile host="Electron" agent="Mozilla/5.0 (Windows NT 10.0; Win64; x64) AppleWebKit/537.36 (KHTML, like Gecko) draw.io/27.0.9 Chrome/134.0.6998.205 Electron/35.4.0 Safari/537.36" version="27.0.9">
  <diagram name="PhotoHub Architecture" id="photo-hub-diagram">
    <mxGraphModel dx="983" dy="595" grid="1" gridSize="10" guides="1" tooltips="1" connect="1" arrows="1" fold="1" page="1" pageScale="1" pageWidth="827" pageHeight="1169" math="0" shadow="0">
      <root>
        <mxCell id="0" />
        <mxCell id="1" parent="0" />
        <mxCell id="client" value="Client" style="shape=ellipse;whiteSpace=wrap;html=1;" parent="1" vertex="1">
          <mxGeometry x="198" y="70" width="100" height="60" as="geometry" />
        </mxCell>
        <mxCell id="nginx" value="NGINX&#xa;/auth_request + routing" style="shape=process;whiteSpace=wrap;html=1;fillColor=#60a917;fontColor=#ffffff;strokeColor=#2D7600;" parent="1" vertex="1">
          <mxGeometry x="198" y="160" width="160" height="60" as="geometry" />
        </mxCell>
        <mxCell id="auth" value="Auth Service&#xa;POST /api/internal/validate" style="shape=process;whiteSpace=wrap;html=1;fillColor=#1ba1e2;fontColor=#ffffff;strokeColor=#006EAF;" parent="1" vertex="1">
          <mxGeometry x="88" y="260" width="200" height="60" as="geometry" />
        </mxCell>
        <mxCell id="media" value="Media Service&#xa;/upload, /list, /delete, /process" style="shape=process;whiteSpace=wrap;html=1;fillColor=#d80073;fontColor=#ffffff;strokeColor=#A50040;" parent="1" vertex="1">
          <mxGeometry x="318" y="260" width="200" height="60" as="geometry" />
        </mxCell>
        <mxCell id="redis" value="Redis" style="shape=cylinder;whiteSpace=wrap;html=1;" parent="1" vertex="1">
          <mxGeometry x="70" y="380" width="80" height="40" as="geometry" />
        </mxCell>
        <mxCell id="minio" value="MinIO" style="shape=cylinder;whiteSpace=wrap;html=1;" parent="1" vertex="1">
          <mxGeometry x="238" y="380" width="80" height="40" as="geometry" />
        </mxCell>
        <mxCell id="mysql" value="MySQL" style="shape=cylinder;whiteSpace=wrap;html=1;" parent="1" vertex="1">
          <mxGeometry x="378" y="380" width="80" height="40" as="geometry" />
        </mxCell>
        <mxCell id="rabbitmq" value="RabbitMQ" style="shape=cloud;whiteSpace=wrap;html=1;" parent="1" vertex="1">
          <mxGeometry x="540" y="380" width="90" height="40" as="geometry" />
        </mxCell>
        <mxCell id="worker" value="Media Worker" style="shape=hexagon;whiteSpace=wrap;html=1;" parent="1" vertex="1">
          <mxGeometry x="618" y="260" width="120" height="60" as="geometry" />
        </mxCell>
        <mxCell id="ml" value="ML Service" style="shape=process;whiteSpace=wrap;html=1;fillColor=#6a00ff;fontColor=#ffffff;strokeColor=#3700CC;" parent="1" vertex="1">
          <mxGeometry x="618" y="160" width="120" height="60" as="geometry" />
        </mxCell>
        <mxCell id="e1" style="endArrow=block;" parent="1" source="client" target="nginx" edge="1">
          <mxGeometry relative="1" as="geometry" />
        </mxCell>
        <mxCell id="e2" style="endArrow=block;" parent="1" source="nginx" target="auth" edge="1">
          <mxGeometry relative="1" as="geometry" />
        </mxCell>
        <mxCell id="e3" style="endArrow=block;" parent="1" source="nginx" target="media" edge="1">
          <mxGeometry relative="1" as="geometry" />
        </mxCell>
        <mxCell id="e4" style="endArrow=block;" parent="1" source="auth" target="redis" edge="1">
          <mxGeometry relative="1" as="geometry" />
        </mxCell>
        <mxCell id="e5" style="endArrow=block;" parent="1" source="media" target="minio" edge="1">
          <mxGeometry relative="1" as="geometry" />
        </mxCell>
        <mxCell id="e6" style="endArrow=block;" parent="1" source="media" target="mysql" edge="1">
          <mxGeometry relative="1" as="geometry" />
        </mxCell>
        <mxCell id="e7" style="endArrow=block;" parent="1" source="media" target="rabbitmq" edge="1">
          <mxGeometry relative="1" as="geometry" />
        </mxCell>
        <mxCell id="e8" style="endArrow=block;" parent="1" source="rabbitmq" target="worker" edge="1">
          <mxGeometry relative="1" as="geometry" />
        </mxCell>
        <mxCell id="e9" style="endArrow=block;" parent="1" source="worker" target="ml" edge="1">
          <mxGeometry relative="1" as="geometry" />
        </mxCell>
        <mxCell id="e10" style="endArrow=block;" parent="1" source="ml" target="mysql" edge="1">
          <mxGeometry relative="1" as="geometry" />
        </mxCell>
      </root>
    </mxGraphModel>
  </diagram>
</mxfile>
